<?xml version="1.0" encoding="utf-8"?>
<!-- Generator: Adobe Illustrator 18.1.1, SVG Export Plug-In . SVG Version: 6.00 Build 0)  -->
<svg version="1.1" id="Layer_1" xmlns="http://www.w3.org/2000/svg" xmlns:xlink="http://www.w3.org/1999/xlink" x="0px" y="0px"
	 viewBox="0 0 612 792" enable-background="new 0 0 612 792" xml:space="preserve">
<path fill="#FFFFFF" d="M416.2,477.2V375.7h-17.1v-50h-13.7v-25h-20.1v-22.3h-15.1v-11.1c0-3.4-2.7-6.1-6.1-6.1h-2.3v-23h-6.6v-19.4
	h-5.8v-84.8h-5v-5.2c0-1.1-0.3-2.1-0.8-3l-5.4-9.6c-1.1-1.9-3.1-3.1-5.3-3.1h-0.8V19.6c0-3.4-2.7-6.1-6.1-6.1
	c-3.4,0-6.1,2.7-6.1,6.1v93.3h-0.8c-2.2,0-4.3,1.2-5.3,3.1l-5.4,9.6c-0.5,0.9-0.8,1.9-0.8,3v5.2h-5v84.8h-5.8v19.4h-6.6v23h-2.3
	c-3.4,0-6.1,2.7-6.1,6.1v11.1h-15.1v22.3h-20.1v25h-13.7v50h-17.1v101.5h-13.3v148.4h247.1V477.2H416.2z M404,477.2h-8.6v-72h-12.2
	v72h-6v-72h-12.2v72h-8.6v-89.2H404L404,477.2L404,477.2z M329.5,250.4v10.8h-17.9v-115h5.6v84.8h5.8v19.4H329.5z M299.9,130.2
	l2.8-5.1h6.6l2.8,5.1v3.6h-12.3V130.2z M282.5,250.4h6.6v-19.4h5.8v-84.8h4.4v115h-16.8V250.4z M274.1,273.4h63.9v5h-63.9V273.4z
	 M258.9,290.6h94.2v10.1h-94.2V290.6z M238.8,313h134.4v12.8H238.8V313z M208,387.9h47.7v89.2h-8.6v-72h-12.2v72h-6v-72h-12.2v72
	H208V387.9z M262.9,613.3h-9.8V497h-12.2v116.3h-6V497h-12.2v116.3h-6V497h-12.2v116.3h-9.8V489.4h1.1h67.1V613.3z M329.8,613.3V356
	c0-3.4-2.7-6.1-6.1-6.1c-3.4,0-6.1,2.7-6.1,6.1v257.3h-6V356c0-3.4-2.7-6.1-6.1-6.1c-3.4,0-6.1,2.7-6.1,6.1v257.3h-6V356
	c0-3.4-2.7-6.1-6.1-6.1c-3.4,0-6.1,2.7-6.1,6.1v257.3h-6V477.2h-7.2V375.7H260v-16.6h-12.2v16.6h-22.7v-37.7h161.8v37.7h-23.8v-16.6
	h-12.2v16.6H344v101.5h-7.2v136.1H329.8z M417.3,613.3h-9.8V497h-12.2v116.3h-6V497h-12.2v116.3h-6V497h-12.2v116.3h-9.8V489.4h67.1
	h1.1V613.3z"/>
</svg>
