<?xml version="1.0" encoding="utf-8"?>
<!-- Generator: Adobe Illustrator 18.1.1, SVG Export Plug-In . SVG Version: 6.00 Build 0)  -->
<svg version="1.1" id="Layer_1" xmlns="http://www.w3.org/2000/svg" xmlns:xlink="http://www.w3.org/1999/xlink" x="0px" y="0px"
	 viewBox="0 0 612 792" enable-background="new 0 0 612 792" xml:space="preserve">
<g>
	<path fill="#FFFFFF" d="M306,170.8c12.6,0,22.9-10.3,22.9-22.9c0-12.6-10.3-22.9-22.9-22.9c-12.7,0-22.9,10.3-22.9,22.9
		S293.4,170.8,306,170.8z M306,137.2c5.9,0,10.7,4.8,10.7,10.7c0,5.9-4.8,10.7-10.7,10.7c-5.9,0-10.7-4.8-10.7-10.7
		C295.3,142,300.1,137.2,306,137.2z"/>
	<path fill="#FFFFFF" d="M276.6,255.8c-12.6,0-22.9,10.3-22.9,22.9c0,12.6,10.3,22.9,22.9,22.9s22.9-10.3,22.9-22.9
		C299.5,266.1,289.3,255.8,276.6,255.8z M276.6,289.5c-5.9,0-10.7-4.8-10.7-10.7s4.8-10.7,10.7-10.7c5.9,0,10.7,4.8,10.7,10.7
		C287.3,284.7,282.5,289.5,276.6,289.5z"/>
	<path fill="#FFFFFF" d="M256,230c18,0,32.6-14.6,32.6-32.6c0-18-14.6-32.6-32.6-32.6s-32.6,14.6-32.6,32.6
		C223.5,215.4,238.1,230,256,230z M256,177.2c11.2,0,20.3,9.1,20.3,20.3c0,11.2-9.1,20.3-20.3,20.3c-11.2,0-20.3-9.1-20.3-20.3
		C235.7,186.3,244.8,177.2,256,177.2z"/>
	<path fill="#FFFFFF" d="M256,215.3c9.9,0,17.9-8,17.9-17.9c0-9.8-8-17.9-17.9-17.9c-9.9,0-17.9,8-17.9,17.9
		C238.2,207.3,246.2,215.3,256,215.3z M256,191.8c3.1,0,5.6,2.5,5.6,5.6c0,3.1-2.5,5.6-5.6,5.6c-3.1,0-5.6-2.5-5.6-5.6
		C250.4,194.4,252.9,191.8,256,191.8z"/>
	<path fill="#FFFFFF" d="M356,230c18,0,32.6-14.6,32.6-32.6c0-18-14.6-32.6-32.6-32.6s-32.6,14.6-32.6,32.6
		C323.4,215.4,338,230,356,230z M356,177.2c11.2,0,20.3,9.1,20.3,20.3c0,11.2-9.1,20.3-20.3,20.3c-11.2,0-20.3-9.1-20.3-20.3
		C335.6,186.3,344.8,177.2,356,177.2z"/>
	<path fill="#FFFFFF" d="M356,215.3c9.8,0,17.9-8,17.9-17.9c0-9.8-8-17.9-17.9-17.9s-17.9,8-17.9,17.9
		C338.1,207.3,346.1,215.3,356,215.3z M356,191.8c3.1,0,5.6,2.5,5.6,5.6c0,3.1-2.5,5.6-5.6,5.6c-3.1,0-5.6-2.5-5.6-5.6
		C350.3,194.4,352.9,191.8,356,191.8z"/>
	<path fill="#FFFFFF" d="M577.8,242.5c-9.9,0-17.9,8.2-17.9,18.4v6h-14c-0.8-9.4-8.6-16.8-18.2-16.8H527c-9.6,0-17.4,7.4-18.2,16.8
		h-9.9c-3-48.9-14-92-32.9-128.2c-7.1-13.7-14.5-27.9-45.6-35.9C384,93.2,345.5,88.5,306,88.5s-78,4.7-114.4,14.1
		c-31.1,8-38.5,22.2-45.6,35.9c-18.9,36.3-29.8,79.4-32.9,128.2h-9.9c-0.8-9.4-8.6-16.8-18.2-16.8h-0.7c-9.6,0-17.4,7.4-18.2,16.8
		h-14v-6c0-10.1-8-18.4-17.9-18.4s-17.9,8.2-17.9,18.4v57.8c0,10.1,8,18.4,17.9,18.4s17.9-8.2,17.9-18.4v-6h14
		c0.7,7.9,6.3,14.3,13.7,16.2c9.2,127.5,67.3,237.8,132.5,295.8c0.3,0.5,0.5,0.9,1,1.3l14.9,13.6c6.9,6.3,12.9,21.2,12.9,32v22.9
		c0,3.4,2.7,6.1,6.1,6.1s6.1-2.7,6.1-6.1v-22.9c0-6.4-1.5-13.4-4-20.1c19.3,10.8,38.5,16.7,56.7,16.7c18.2,0,37.4-5.9,56.7-16.7
		c-2.4,6.7-4,13.7-4,20.1v22.9c0,3.4,2.7,6.1,6.1,6.1c3.4,0,6.1-2.7,6.1-6.1v-22.9c0-10.7,6-25.7,12.9-32l14.9-13.6
		c0.4-0.4,0.7-0.9,1-1.3c65.2-58,123.3-168.3,132.5-295.8c7.5-1.9,13.1-8.3,13.7-16.2h14v6c0,10.1,8,18.4,17.9,18.4
		s17.9-8.2,17.9-18.4v-57.8C595.7,250.7,587.6,242.5,577.8,242.5z M508.6,279v21.4h-8.9c0-1.8,0.1-3.6,0.1-5.4
		c0-5.4-0.2-10.7-0.4-15.9H508.6z M189.4,164.7V216c0,9.2,3.4,17.6,9,24.1c-11.5-2-20.3-12-20.3-24.1v-40.3
		C181.7,171.9,185.4,168.2,189.4,164.7z M306,120c39.1,0,75.2,12.9,104.4,34.7V216c0,13.5-11,24.5-24.5,24.5h-28.3
		c-3.6,0-7.4-0.5-11-1.5c-10.9-2.9-21-9.7-24.6-17.3c-4.4-9.4-10.5-12-14.5-12.6c-0.6-0.1-1.1-0.1-1.6-0.1
		c-3.9-0.2-11.6,1.2-17.9,12.3c-5.9,10.4-23.2,19.2-37.9,19.2h-24.1c-13.5,0-24.5-11-24.5-24.5v-61.4C230.8,132.9,266.9,120,306,120
		z M433.9,175.7V216c0,12.1-8.8,22.1-20.3,24.1c5.6-6.4,9.1-14.8,9.1-24.1v-51.4C426.6,168.2,430.3,171.9,433.9,175.7z M366.1,266.8
		c-2.4,10.4-13.6,25.2-24.6,32.4l-14.7,9.7c-0.1-0.3-0.2-0.6-0.4-0.9c-4-7.4-11.8-12-20.2-12c-3.8,0-7.6,1-10.9,2.8l-31,16.8
		c-3,1.6-4.1,5.3-2.5,8.3l16,29.6c0.8,1.4,2.1,2.5,3.6,2.9c0.6,0.2,1.2,0.3,1.8,0.3c1,0,2-0.3,2.9-0.7l31-16.8c0,0,0,0,0,0
		c5.4-2.9,9.3-7.7,11.1-13.6c0.3-1.1,0.5-2.2,0.6-3.3l19.4-12.8c3.6-2.4,7.1-5.3,10.4-8.6v120.4h-23.3h-58.8h-23.3V252.5
		c18.3-1.1,37.8-11.7,45.4-25.2c2.5-4.5,5.2-6.1,6.7-6.1c0,0,0,0,0.1,0c1.8,0.1,3.9,2.2,5.5,5.7c6.8,14.5,27.3,25.9,46.6,25.9h11.8
		L366.1,266.8z M301.3,309.6L301.3,309.6c1.6-0.9,3.3-1.3,5.1-1.3c3.9,0,7.5,2.2,9.4,5.6c1.4,2.5,1.7,5.4,0.8,8.2
		c-0.8,2.7-2.6,5-5.2,6.3c0,0,0,0,0,0l0,0c-5.1,2.7-11.8,0.7-14.5-4.3C294.1,318.9,296.1,312.4,301.3,309.6L301.3,309.6z
		 M286.2,329.9c1.8,3.3,4.4,6.1,7.5,8.1l-7.8,4.2l-10.2-18.8l7.9-4.3C283.6,322.8,284.3,326.5,286.2,329.9z M282.7,433.5h46.5v5.4
		h-46.5V433.5z M202.6,252.8h23.5h15v174.6c0,3.4,2.7,6.1,6.1,6.1h23.3V445c0,3.4,2.7,6.1,6.1,6.1h58.8c3.4,0,6.1-2.7,6.1-6.1v-11.5
		h23.3c3.4,0,6.1-2.7,6.1-6.1V286.6c0-0.3-0.1-0.5-0.2-0.8c3.5-5.5,6.1-11.2,7.3-16.2l3.9-16.8h4h23.5c20.3,0,36.7-16.5,36.7-36.7
		v-25.8C468,219.5,481,255.7,481,295c0,96.5-78.5,175-175,175c-96.5,0-175-78.5-175-175c0-39.2,13-75.5,34.8-104.7V216
		C165.8,236.3,182.3,252.8,202.6,252.8z M306,482.2c82.6,0,152.8-53.8,177.6-128.1C462.5,512.2,361.5,622.3,306,622.3
		S149.5,512.2,128.4,354.1C153.2,428.5,223.4,482.2,306,482.2z M156.8,144.2c6.7-12.9,12-23.1,37.8-29.7
		c35.4-9.1,72.8-13.7,111.3-13.7s76,4.6,111.3,13.7c25.8,6.6,31.1,16.8,37.8,29.7c13.8,26.5,23.2,57,28.2,90.9
		c-8.3-24.6-21.6-47-38.7-65.8c-0.2-0.2-0.4-0.5-0.6-0.7c-7.1-7.7-14.8-14.8-23.1-21.3c-0.2-0.2-0.4-0.3-0.6-0.5
		c-31.7-24.5-71.3-39.1-114.3-39.1s-82.7,14.6-114.4,39.1c-0.2,0.2-0.4,0.3-0.6,0.5c-8.3,6.5-16,13.6-23.1,21.3
		c-0.3,0.2-0.5,0.5-0.7,0.7c-17.1,18.8-30.4,41.2-38.7,65.8C133.6,201.2,143,170.7,156.8,144.2z M112.2,300.4h-8.9V279h9.2
		c-0.2,5.3-0.4,10.5-0.4,15.9C112.1,296.8,112.2,298.6,112.2,300.4z M39.8,318.6c0,3.4-2.5,6.1-5.6,6.1s-5.6-2.7-5.6-6.1v-57.8
		c0-3.4,2.5-6.1,5.6-6.1s5.6,2.7,5.6,6.1v12.1v33.6V318.6z M52.1,279h13.8v21.4H52.1V279z M78.2,306.5v-33.6v-4.6
		c0-3.4,2.7-6.1,6.1-6.1H85c3.4,0,6.1,2.7,6.1,6.1v4.6v33.6v4.6c0,3.4-2.7,6.1-6.1,6.1h-0.7c-3.4,0-6.1-2.7-6.1-6.1V306.5z
		 M306,655.9c-86.5,0-201.1-150.8-214-327.9c6.2-2.6,10.6-8.5,11.2-15.4h9.3C119.8,489,233.6,634.5,306,634.5S492.2,489,499.5,312.6
		h9.3c0.6,7,5,12.8,11.2,15.4C507.1,505.2,392.5,655.9,306,655.9z M533.8,311.1c0,3.4-2.7,6.1-6.1,6.1H527c-3.4,0-6.1-2.7-6.1-6.1
		v-4.6v-33.6v-4.6c0-3.4,2.7-6.1,6.1-6.1h0.7c3.4,0,6.1,2.7,6.1,6.1v4.6v33.6V311.1z M546.1,300.4V279h13.8v21.4H546.1z
		 M583.4,318.6c0,3.4-2.5,6.1-5.6,6.1s-5.6-2.7-5.6-6.1v-12.1v-33.6v-12.1c0-3.4,2.5-6.1,5.6-6.1s5.6,2.7,5.6,6.1V318.6z"/>
	<path fill="#FFFFFF" d="M258.7,377.5v32.2c0,3.4,2.7,6.1,6.1,6.1h82.4c3.4,0,6.1-2.7,6.1-6.1v-32.2c0-3.4-2.7-6.1-6.1-6.1h-82.4
		C261.4,371.4,258.7,374.1,258.7,377.5z M270.9,383.6h70.2v20h-70.2V383.6z"/>
	<path fill="#FFFFFF" d="M142.3,277.3v23.5c0,3.4,2.7,6.1,6.1,6.1H219c3.4,0,6.1-2.7,6.1-6.1v-23.5c0-3.4-2.7-6.1-6.1-6.1h-70.5
		C145.1,271.2,142.3,274,142.3,277.3z M154.6,283.5h58.3v11.3h-58.3V283.5L154.6,283.5z"/>
</g>
</svg>
